# xmcd CD database file
#
# Track frame offsets:
#	150
#	30195
#	50970
#	69818
#	89066
#	111304
#	133822
#	158647
#	182872
#	197320
#
# Disc length: 2874 seconds
#
# Revision: 0
# Processed by: cddbd v1.5.2PL0 Copyright (c) Steve Scherf et al.
# Submitted via: jetAudio 7
#
DISCID=850b380a
DTITLE=The Bobby Young Project - Blues With A Twist
DYEAR=1900
DGENRE=Blues
TTITLE0=Tin Pan Alley
TTITLE1=The Thrill Is Gone
TTITLE2=The House Of The Rising Sun
TTITLE3=Stand By Me
TTITLE4=Killing Floor
TTITLE5=I Ain't Superstitious
TTITLE6=Every Day I Have The Blues
TTITLE7=Don't Throw Your Love On Me So Strong
TTITLE8=Sexy Ways
TTITLE9=Hoochie Coochie Man
EXTD=
EXTT0=
EXTT1=
EXTT2=
EXTT3=
EXTT4=
EXTT5=
EXTT6=
EXTT7=
EXTT8=
EXTT9=
PLAYORDER=
